<?xml version="1.0" encoding="UTF-8" standalone="no"?>
<!-- Created with Inkscape (http://www.inkscape.org/) -->

<svg
   width="793.70081"
   height="1122.5197"
   viewBox="0 0 210 296.99999"
   version="1.1"
   id="svg1"
   sodipodi:docname="person.svg"
   inkscape:version="1.3.2 (091e20e, 2023-11-25, custom)"
   inkscape:export-filename="person.png"
   inkscape:export-xdpi="96"
   inkscape:export-ydpi="96"
   xmlns:inkscape="http://www.inkscape.org/namespaces/inkscape"
   xmlns:sodipodi="http://sodipodi.sourceforge.net/DTD/sodipodi-0.dtd"
   xmlns:xlink="http://www.w3.org/1999/xlink"
   xmlns="http://www.w3.org/2000/svg"
   xmlns:svg="http://www.w3.org/2000/svg">
  <sodipodi:namedview
     id="namedview1"
     pagecolor="#505050"
     bordercolor="#eeeeee"
     borderopacity="1"
     inkscape:showpageshadow="0"
     inkscape:pageopacity="0"
     inkscape:pagecheckerboard="0"
     inkscape:deskcolor="#505050"
     inkscape:document-units="mm"
     showborder="false"
     inkscape:zoom="1.9492857"
     inkscape:cx="-25.137413"
     inkscape:cy="90.802493"
     inkscape:window-width="1920"
     inkscape:window-height="1009"
     inkscape:window-x="-8"
     inkscape:window-y="-8"
     inkscape:window-maximized="1"
     inkscape:current-layer="layer7" />
  <defs
     id="defs1">
    <inkscape:path-effect
       effect="mirror_symmetry"
       start_point="-0.2,3.9556813"
       end_point="-0.2,14.786274"
       center_point="-0.2,9.3709777"
       id="path-effect53"
       is_visible="true"
       lpeversion="1.2"
       lpesatellites=""
       mode="free"
       discard_orig_path="true"
       fuse_paths="false"
       oposite_fuse="false"
       split_items="false"
       split_open="false"
       link_styles="false" />
    <inkscape:path-effect
       effect="clone_original"
       css_properties=""
       attributes="style,clip-path,mask"
       linkeditem=""
       is_visible="true"
       method="d"
       allow_transforms="true"
       id="path-effect52"
       lpeversion="1" />
    <inkscape:path-effect
       effect="mirror_symmetry"
       start_point="-0.66865015,3.9556813"
       end_point="-0.66865015,14.786274"
       center_point="-0.66865015,9.3709777"
       id="path-effect51"
       is_visible="true"
       lpeversion="1.2"
       lpesatellites=""
       mode="free"
       discard_orig_path="false"
       fuse_paths="false"
       oposite_fuse="false"
       split_items="false"
       split_open="false"
       link_styles="false" />
    <inkscape:path-effect
       effect="clone_original"
       css_properties=""
       attributes="style,clip-path,mask"
       linkeditem=""
       is_visible="true"
       method="d"
       allow_transforms="true"
       id="path-effect50"
       lpeversion="1" />
    <inkscape:path-effect
       effect="clone_original"
       css_properties=""
       attributes="style,clip-path,mask"
       linkeditem=""
       is_visible="true"
       method="d"
       allow_transforms="true"
       id="path-effect49"
       lpeversion="1" />
    <inkscape:path-effect
       effect="mirror_symmetry"
       start_point="-0.66865015,3.9556813"
       end_point="-0.66865015,14.786274"
       center_point="-0.66865015,9.3709777"
       id="path-effect48"
       is_visible="true"
       lpeversion="1.2"
       lpesatellites=""
       mode="free"
       discard_orig_path="false"
       fuse_paths="false"
       oposite_fuse="false"
       split_items="false"
       split_open="false"
       link_styles="false" />
    <inkscape:path-effect
       effect="clone_original"
       css_properties=""
       attributes="style,clip-path,mask"
       linkeditem=""
       is_visible="true"
       method="d"
       allow_transforms="true"
       id="path-effect47"
       lpeversion="1" />
    <inkscape:path-effect
       effect="mirror_symmetry"
       start_point="105,0"
       end_point="105,0"
       center_point="105,0"
       id="path-effect46"
       is_visible="true"
       lpeversion="1.2"
       lpesatellites=""
       mode="X"
       discard_orig_path="false"
       fuse_paths="false"
       oposite_fuse="false"
       split_items="false"
       split_open="false"
       link_styles="false" />
    <inkscape:path-effect
       effect="mirror_symmetry"
       start_point="2.7680526,-13.923588"
       end_point="2.3815052,-11.967474"
       center_point="2.5747789,-12.945531"
       id="path-effect13"
       is_visible="true"
       lpeversion="1.2"
       lpesatellites=""
       mode="free"
       discard_orig_path="false"
       fuse_paths="false"
       oposite_fuse="false"
       split_items="false"
       split_open="false"
       link_styles="false" />
    <inkscape:path-effect
       effect="mirror_symmetry"
       start_point="0.1480751,-15.08365"
       end_point="0.1480751,-13.458306"
       center_point="0.1480751,-14.270978"
       id="path-effect12"
       is_visible="true"
       lpeversion="1.2"
       lpesatellites=""
       mode="free"
       discard_orig_path="false"
       fuse_paths="false"
       oposite_fuse="false"
       split_items="false"
       split_open="false"
       link_styles="false" />
    <inkscape:path-effect
       effect="mirror_symmetry"
       start_point="0.14807509,-15.450138"
       end_point="0.14384316,-12.447727"
       center_point="0.14595912,-13.948933"
       id="path-effect8"
       is_visible="true"
       lpeversion="1.2"
       lpesatellites=""
       mode="free"
       discard_orig_path="false"
       fuse_paths="false"
       oposite_fuse="false"
       split_items="false"
       split_open="false"
       link_styles="false" />
    <inkscape:path-effect
       effect="fillet_chamfer"
       id="path-effect7"
       is_visible="true"
       lpeversion="1"
       nodesatellites_param="F,0,0,1,0,2.8979829,0,1 @ F,0,0,1,0,1.3229167,0,1 @ F,0,0,1,0,1.3229167,0,1 @ F,0,0,1,0,1.3229167,0,1 @ F,0,0,1,0,1.7542942,0,1 @ F,0,0,1,0,1.3229167,0,1 @ F,0,0,1,0,1.3229167,0,1"
       radius="5"
       unit="px"
       method="auto"
       mode="F"
       chamfer_steps="1"
       flexible="false"
       use_knot_distance="true"
       apply_no_radius="true"
       apply_with_radius="true"
       only_selected="false"
       hide_knots="false" />
    <inkscape:path-effect
       effect="mirror_symmetry"
       start_point="0.14384317,-19.454759"
       end_point="0.14384317,-16.541939"
       center_point="0.14384317,-17.998349"
       id="path-effect6"
       is_visible="true"
       lpeversion="1.2"
       lpesatellites=""
       mode="free"
       discard_orig_path="false"
       fuse_paths="false"
       oposite_fuse="false"
       split_items="false"
       split_open="false"
       link_styles="false" />
    <inkscape:path-effect
       effect="mirror_symmetry"
       start_point="0.14384317,-9.3333992"
       end_point="0.14384317,-6.6437463"
       center_point="0.14384317,-7.9885728"
       id="path-effect4"
       is_visible="true"
       lpeversion="1.2"
       lpesatellites=""
       mode="free"
       discard_orig_path="false"
       fuse_paths="false"
       oposite_fuse="false"
       split_items="false"
       split_open="false"
       link_styles="false" />
    <inkscape:path-effect
       effect="mirror_symmetry"
       start_point="0.14384316,-11.795122"
       end_point="0.14384317,3.2005059"
       center_point="0.14384316,-4.297308"
       id="path-effect3"
       is_visible="true"
       lpeversion="1.2"
       lpesatellites=""
       mode="free"
       discard_orig_path="false"
       fuse_paths="false"
       oposite_fuse="false"
       split_items="false"
       split_open="false"
       link_styles="false" />
  </defs>
  <g
     inkscape:groupmode="layer"
     id="layer8"
     inkscape:label="Collider">
    <circle
       style="fill:#c7dcd0;fill-opacity:0.504604;fill-rule:evenodd;stroke:#9e4539;stroke-width:2.11666;stroke-linejoin:round;stroke-miterlimit:7.3;stroke-opacity:0"
       id="path57"
       cx="28.829767"
       cy="76.387688"
       r="15.35548" />
  </g>
  <g
     inkscape:groupmode="layer"
     id="layer6"
     inkscape:label="LeftLeg"
     transform="translate(0.3809641,0.57537182)">
    <g
       id="g45"
       transform="matrix(2,0,0,2,29.056787,48.29054)">
      <rect
         style="fill:#3e3546;fill-opacity:1;fill-rule:evenodd;stroke:#9e4539;stroke-width:1.05833;stroke-linejoin:round;stroke-miterlimit:7.3;stroke-opacity:0"
         id="rect44"
         width="4.0940595"
         height="9.4576759"
         x="-4.9272175"
         y="3.9556813"
         ry="0.45870194" />
      <rect
         style="fill:#2e222f;fill-opacity:1;fill-rule:evenodd;stroke:#9e4539;stroke-width:1.05833;stroke-linejoin:round;stroke-miterlimit:7.3;stroke-opacity:0"
         id="rect45"
         width="5.2096105"
         height="2.6897357"
         x="-5.8782606"
         y="12.096539"
         ry="0.45870194" />
      <rect
         style="fill:#2e222f;fill-opacity:1;fill-rule:evenodd;stroke:#9e4539;stroke-width:1.05833;stroke-linejoin:round;stroke-miterlimit:7.3;stroke-opacity:0"
         id="rect55"
         width="3.6043837"
         height="2.6897364"
         x="-6.8778391"
         y="12.096538"
         ry="1.3168197" />
      <rect
         style="fill:#2e222f;fill-opacity:1;fill-rule:evenodd;stroke:#9e4539;stroke-width:1.05833;stroke-linejoin:round;stroke-miterlimit:7.3;stroke-opacity:0"
         id="rect56"
         width="2.4482749"
         height="0.63896567"
         x="-6.8778391"
         y="13.441406"
         ry="0" />
      <rect
         style="fill:#2e222f;fill-opacity:1;fill-rule:evenodd;stroke:#9e4539;stroke-width:1.05833;stroke-linejoin:round;stroke-miterlimit:7.3;stroke-opacity:0"
         id="rect57"
         width="2.727946"
         height="1.3448679"
         x="-6.8778391"
         y="13.441406"
         ry="0.44499144" />
    </g>
  </g>
  <g
     inkscape:groupmode="layer"
     id="layer7"
     inkscape:label="RightLeg">
    <use
       x="0"
       y="0"
       xlink:href="#g45"
       id="use57"
       transform="matrix(-1,0,0,1,57.936598,0.57537182)" />
  </g>
  <g
     inkscape:groupmode="layer"
     id="layer2"
     inkscape:label="Head">
    <rect
       style="fill:#e6904e;fill-opacity:1;fill-rule:evenodd;stroke:#9e4539;stroke-width:2.11666;stroke-linejoin:round;stroke-miterlimit:7.3;stroke-opacity:0"
       id="rect58"
       width="7.8922019"
       height="3.1533031"
       x="25.008944"
       y="22.576761"
       ry="0.66072702" />
    <path
       style="fill:#cd683d;stroke:none;stroke-width:1.05833;stroke-linejoin:round;stroke-miterlimit:7.3"
       id="rect12"
       width="1.2982601"
       height="1.9111944"
       x="-1.1291742"
       y="-15.781968"
       ry="0.33036351"
       transform="matrix(1.9620453,-0.3877861,0.3877861,1.9620453,28.931708,45.761795)"
       sodipodi:type="rect"
       d="m -0.79881072,-15.781968 h 0.63753307 c 0.18302138,0 0.33036351,0.147342 0.33036351,0.330363 v 1.250468 c 0,0.183021 -0.14734213,0.330363 -0.33036351,0.330363 h -0.63753307 c -0.18302139,0 -0.33036348,-0.147342 -0.33036348,-0.330363 v -1.250468 c 0,-0.183021 0.14734209,-0.330363 0.33036348,-0.330363 z m 7.57249192,1.496399 -0.5896134,-0.242496 c -0.1692648,-0.06962 -0.3615761,0.01061 -0.4311913,0.179872 l -0.4756359,1.156478 c -0.069615,0.169264 0.010608,0.361576 0.1798728,0.431191 l 0.5896134,0.242496 c 0.1692647,0.06961 0.361576,-0.01061 0.4311912,-0.179873 l 0.475636,-1.156477 c 0.069615,-0.169265 -0.010608,-0.361576 -0.1798728,-0.431191 z"
       inkscape:path-effect="#path-effect13" />
    <rect
       style="fill:#e6904e;stroke:none;stroke-width:2.11666;stroke-linejoin:round;stroke-miterlimit:7.3"
       id="rect5"
       width="14.407211"
       height="11.655137"
       x="21.759905"
       y="11.726637"
       ry="2.1739621" />
    <path
       style="display:none;fill:#9e4539;stroke:none;stroke-width:1.05833;stroke-linejoin:round;stroke-miterlimit:7.3"
       d="m -2.4120683,-17.024378 -0.3725714,0.118236 a 1.0360078,1.0360078 34.327719 0 1 -1.3471813,-0.91994 l -0.061269,-0.937887 a 1.8144523,1.8144523 122.35815 0 1 1.1442368,-1.805943 12.785844,12.785844 164.37309 0 1 2.0007469,-0.559632 8.160471,8.160471 179.95455 0 1 3.1269769,-0.0025 l 1.3106518,0.227934 a 1.7309732,1.7309732 47.254878 0 1 1.426836,1.543806 l 0.076683,0.817949 A 1.041106,1.041106 136.44222 0 1 3.7072644,-17.4148 l -0.489045,-0.07082 a 12.629355,12.629355 175.31666 0 0 -5.6302877,0.461245 z"
       id="path6"
       inkscape:path-effect="#path-effect7"
       inkscape:original-d="m 0.35015594,-17.900975 -4.39573904,1.394996 -0.2337448,-3.578093 1.9383085,-0.765321 2.69153754,-0.583207 4.34235826,0.755175 0.3236466,3.452231 z"
       transform="translate(20.339511,27.691492)"
       sodipodi:nodetypes="cccccccc" />
    <g
       id="g8"
       inkscape:path-effect="#path-effect8"
       transform="matrix(2,0,0,2,28.667357,46.291196)">
      <path
         style="fill:#c7dcd0;stroke:none;stroke-width:1.05833;stroke-linejoin:round;stroke-miterlimit:7.3"
         id="rect7"
         width="1.654194"
         height="1.9598602"
         x="-2.355937"
         y="-15.52823"
         ry="0.45870194"
         sodipodi:type="rect"
         d="m -1.8972351,-15.52823 h 0.7367902 c 0.25412083,0 0.45870189,0.204581 0.45870189,0.458702 v 1.042457 c 0,0.25412 -0.20458106,0.458701 -0.45870189,0.458701 h -0.7367902 c -0.2541208,0 -0.4587019,-0.204581 -0.4587019,-0.458701 v -1.042457 c 0,-0.254121 0.2045811,-0.458702 0.4587019,-0.458702 z m 4.0908324,0.0058 -0.7367872,-0.0021 c -0.2541199,-7.16e-4 -0.45927687,0.203287 -0.45999324,0.457407 l -0.002939,1.042453 c -7.1637e-4,0.254119 0.20328714,0.459276 0.45740704,0.459993 l 0.7367872,0.0021 c 0.2541198,7.16e-4 0.4592768,-0.203287 0.4599932,-0.457407 l 0.00294,-1.042452 c 7.164e-4,-0.25412 -0.2032872,-0.459277 -0.457407,-0.459994 z" />
      <path
         style="fill:#2e222f;stroke:none;stroke-width:1.05833;stroke-linejoin:round;stroke-miterlimit:7.3"
         id="rect8"
         width="0.90743077"
         height="1.3759975"
         x="-1.8670077"
         y="-15.083651"
         ry="0.30117109"
         sodipodi:type="rect"
         d="m -1.5658366,-15.083651 h 0.3050885 c 0.1668488,0 0.30117114,0.134323 0.30117114,0.301172 v 0.773655 c 0,0.166849 -0.13432234,0.301171 -0.30117114,0.301171 h -0.3050885 c -0.1668488,0 -0.3011711,-0.134322 -0.3011711,-0.301171 v -0.773655 c 0,-0.166849 0.1343223,-0.301172 0.3011711,-0.301172 z m 3.4267835,0.0048 -0.3050874,-8.6e-4 c -0.1668481,-4.7e-4 -0.3015485,0.133473 -0.3020189,0.300321 l -0.00218,0.773653 c -4.704e-4,0.166848 0.1334727,0.301548 0.3003208,0.302019 l 0.3050874,8.6e-4 c 0.1668481,4.7e-4 0.3015486,-0.133473 0.3020189,-0.300321 l 0.00218,-0.773653 C 2.1617381,-14.94365 2.027795,-15.07835 1.8609469,-15.078821 Z" />
      <path
         style="fill:#6e2727;stroke:none;stroke-width:1.05833;stroke-linejoin:round;stroke-miterlimit:7.3"
         id="rect9"
         width="2.3003767"
         height="0.53193909"
         x="-1.6771433"
         y="-15.806615"
         ry="0.26596954"
         sodipodi:type="rect"
         d="m -1.4111738,-15.806615 1.76843757,0 c 0.14734713,0 0.26596955,0.118623 0.26596955,0.26597 0,0.147347 -0.11862242,0.265969 -0.26596955,0.265969 H -1.4111738 c -0.1473471,0 -0.2659695,-0.118622 -0.2659695,-0.265969 0,-0.147347 0.1186224,-0.26597 0.2659695,-0.26597 z m 5.2689913,0.369908 -1.7510909,-0.247087 c -0.1459018,-0.02059 -0.2799346,0.0803 -0.3005221,0.226199 -0.020587,0.145902 0.080297,0.279934 0.2261992,0.300522 l 1.7510909,0.247087 c 0.1459018,0.02059 0.2799347,-0.0803 0.3005221,-0.226199 0.020587,-0.145902 -0.080297,-0.279935 -0.2261992,-0.300522 z"
         transform="rotate(-3.9350819)" />
    </g>
    <rect
       style="fill:#b33831;stroke:none;stroke-width:2.11666;stroke-linejoin:round;stroke-miterlimit:7.3"
       id="rect13"
       width="3.8051429"
       height="1.532701"
       x="27.052473"
       y="21.168251"
       ry="0.66072702" />
    <path
       style="fill:#cd683d;stroke:none;stroke-width:1.05833;stroke-linejoin:round;stroke-miterlimit:7.3"
       d="m 0.14800994,-15.08365 6.516e-5,1.993941 c -0.16913969,-0.0049 -0.5190312,-0.0112 -0.51416172,-0.10917 0.0169651,-0.292597 0.0534778,-0.422318 0.346998,-1.780196 0.0236862,-0.109577 0.06409538,-0.108774 0.16709856,-0.104576 z m 1.3032e-4,0 -6.516e-5,1.993941 c 0.16913969,-0.0049 0.5190312,-0.0112 0.51416172,-0.10917 -0.0169651,-0.292597 -0.0534778,-0.422318 -0.346998,-1.780196 -0.0236862,-0.109577 -0.0640954,-0.108774 -0.16709856,-0.104576 z"
       id="path12"
       inkscape:path-effect="#path-effect12"
       inkscape:original-d="m 0.14800994,-15.08365 6.516e-5,1.993941 c -0.16913969,-0.0049 -0.5190312,-0.0112 -0.51416172,-0.10917 0.0169651,-0.292597 0.0534778,-0.422318 0.346998,-1.780196 0.0236862,-0.109577 0.06409538,-0.108774 0.16709856,-0.104576 z"
       sodipodi:nodetypes="cccscc"
       transform="matrix(2,0,0,2,28.667357,46.261364)" />
    <path
       style="fill:#9e4539;fill-opacity:1;fill-rule:evenodd;stroke:none;stroke-width:2.11666;stroke-linejoin:round;stroke-miterlimit:7.3;stroke-opacity:0"
       d="m 21.759905,15.894804 c 0.723584,-1.637278 1.772272,-2.499524 4.40732,-2.553518 4.18863,-0.06362 9.374956,0.837854 9.99989,2.78261 1.565436,-0.760996 1.282804,-1.48712 1.312438,-3.192493 0.03392,-2.748311 -1.156716,-4.2518887 -3.723276,-4.9958503 -7.185696,-2.0828948 -13.900252,-0.8840302 -13.491704,5.8376433 -0.08184,1.376936 0.553964,1.925608 1.495332,2.121608 z"
       id="path59"
       sodipodi:nodetypes="ccccscc" />
  </g>
  <g
     inkscape:label="Torso"
     inkscape:groupmode="layer"
     id="layer1"
     style="display:inline">
    <path
       id="rect4"
       style="fill:#c7dcd0;stroke-width:2.11666;stroke-linejoin:round;stroke-miterlimit:7.3"
       d="m 22.685773,24.124924 h 0.396014 c 3.875084,0.75058 7.793926,0.77467 11.763658,0 h 0.36788 c 0.508242,0 0.917404,0.409162 0.917404,0.917404 v 30.09833 c 0,0.50824 -0.409162,0.917404 -0.917404,0.917404 H 22.685773 c -0.508242,0 -0.917404,-0.409164 -0.917404,-0.917404 v -30.09833 c 0,-0.508242 0.409162,-0.917404 0.917404,-0.917404 z"
       sodipodi:nodetypes="sccssssssss" />
    <rect
       style="display:inline;fill:#2e222f;stroke:none;stroke-width:2.11666;stroke-linejoin:round;stroke-miterlimit:7.3"
       id="rect3"
       width="2.281286"
       height="2.4101813"
       x="27.822866"
       y="25.211229"
       ry="0.91740394" />
    <path
       style="display:inline;fill:#2e222f;stroke:none;stroke-width:1.05833;stroke-linejoin:round;stroke-miterlimit:7.3"
       d="m 0.14384317,-9.3333992 v 4.9731598 c -0.31709524,-0.7829065 -0.71064514,-2.6654296 -0.95128571,-3.6433061 0.30929363,-0.5297732 0.63419047,-0.8865691 0.95128571,-1.3298537 z m 0,0 v 4.9731598 C 0.46093841,-5.1431459 0.85448831,-7.025669 1.0951289,-8.0035455 0.78583525,-8.5333187 0.46093841,-8.8901146 0.14384317,-9.3333992 Z"
       id="path3"
       sodipodi:nodetypes="cccc"
       inkscape:path-effect="#path-effect4"
       inkscape:original-d="m 0.14384317,-9.3333992 v 4.9731598 c -0.31709524,-0.7829065 -0.71064514,-2.6654296 -0.95128571,-3.6433061 0.30929363,-0.5297732 0.63419047,-0.8865691 0.95128571,-1.3298537 z"
       transform="matrix(2,0,0,2,28.675823,45.083116)" />
    <rect
       style="display:inline;fill:#2e222f;fill-opacity:1;fill-rule:evenodd;stroke:#9e4539;stroke-width:2.11666;stroke-linejoin:round;stroke-miterlimit:7.3;stroke-opacity:0"
       id="rect42"
       width="20.711679"
       height="2.942565"
       x="18.608515"
       y="54.453609"
       ry="0.91740388" />
    <rect
       style="display:inline;fill:#f79617;fill-opacity:1;fill-rule:evenodd;stroke:#9e4539;stroke-width:2.11666;stroke-linejoin:round;stroke-miterlimit:7.3;stroke-opacity:0"
       id="rect43"
       width="4.3309326"
       height="2.942565"
       x="26.798887"
       y="54.453609"
       ry="0.91740388" />
    <path
       id="rect2"
       style="display:inline;fill:#3e3546;stroke-width:1.05833;stroke-linejoin:round;stroke-miterlimit:7.3"
       d="m -4.1103667,-11.795122 h 1.3132777 c -0.1170459,3.0877416 1.5390677,3.4163419 2.71548509,4.9026528 -0.19051474,3.8936976 -0.02233862,9.2221585 -0.72583863,11.063915 H -4.1103667 c -0.5916606,0 -1.0679795,-0.4763188 -1.0679795,-1.0679794 V -10.727143 c 0,-0.59166 0.4763189,-1.067979 1.0679795,-1.067979 z m 8.5084197,0 -1.3132777,0 c 0.1170459,3.0877416 -1.5390677,3.4163419 -2.71548506,4.9026528 0.19051474,3.8936976 0.0223386,9.2221585 0.72583866,11.063915 l 3.3029241,0 c 0.5916606,0 1.0679795,-0.4763188 1.0679795,-1.0679794 l 0,-13.8306094 c 0,-0.59166 -0.4763189,-1.067979 -1.0679795,-1.067979 z"
       sodipodi:nodetypes="sccccsss"
       inkscape:path-effect="#path-effect3"
       inkscape:original-d="m -4.1103667,-11.795122 h 1.3132777 c -0.1170459,3.0877416 1.5390677,3.4163419 2.71548509,4.9026528 -0.19051474,3.8936976 -0.02233862,9.2221585 -0.72583863,11.063915 H -4.1103667 c -0.5916606,0 -1.0679795,-0.4763188 -1.0679795,-1.0679794 V -10.727143 c 0,-0.59166 0.4763189,-1.067979 1.0679795,-1.067979 z"
       transform="matrix(2,0,0,2,28.675823,47.715168)" />
  </g>
  <g
     inkscape:groupmode="layer"
     id="layer5"
     inkscape:label="RightArm">
    <use
       x="0"
       y="0"
       xlink:href="#g41"
       id="use42"
       transform="matrix(-1,0,0,1,58.233507,0)" />
  </g>
  <g
     inkscape:groupmode="layer"
     id="layer3"
     inkscape:label="LeftArm">
    <g
       id="g41"
       transform="matrix(2,0,0,2,28.675823,47.715168)">
      <rect
         style="fill:#3e3546;stroke:none;stroke-width:1.05833;stroke-linejoin:round;stroke-miterlimit:7.3"
         id="rect15"
         width="2.3374479"
         height="12.129944"
         x="-6.8685017"
         y="-11.454711"
         ry="0.74978155" />
      <rect
         style="fill:#e6904e;stroke:none;stroke-width:1.05833;stroke-linejoin:round;stroke-miterlimit:7.3"
         id="rect16"
         width="2.7577329"
         height="3.1533015"
         x="-7.0786443"
         y="-0.25157011"
         ry="0.47007266" />
      <rect
         style="fill:#e6904e;fill-opacity:1;fill-rule:evenodd;stroke:#9e4539;stroke-width:1.05833;stroke-linejoin:round;stroke-miterlimit:7.3;stroke-opacity:0"
         id="rect35"
         width="1.3776078"
         height="0.92812496"
         x="-5.193294"
         y="1.4162151"
         ry="0.28425887" />
      <rect
         style="fill:#e6904e;fill-opacity:1;fill-rule:evenodd;stroke:#9e4539;stroke-width:1.05833;stroke-linejoin:round;stroke-miterlimit:7.3;stroke-opacity:0"
         id="rect36"
         width="0.58176923"
         height="1.3286173"
         x="-7.0786443"
         y="2.0406034"
         ry="0.15603197" />
      <use
         x="0"
         y="0"
         xlink:href="#rect36"
         id="use39"
         transform="translate(2.1756247)" />
      <use
         x="0"
         y="0"
         xlink:href="#rect36"
         id="use40"
         transform="translate(1.4632198)" />
      <use
         x="0"
         y="0"
         xlink:href="#rect36"
         id="use41"
         transform="translate(0.71703451)" />
    </g>
  </g>
</svg>
